<svg width="386" height="130" viewBox="0 0 386 130" fill="none" xmlns="http://www.w3.org/2000/svg">
<g filter="url(#filter0_i_265_107)">
<path d="M371.424 38.8692V49.3711C371.424 50.538 371.212 52.6596 371 55.6298C370.787 57.3271 369.727 58.2818 368.029 58.2818C364.211 58.3879 361.028 58.3879 358.27 58.1757C356.679 58.1757 355.3 57.5392 354.239 56.4784C353.178 55.4176 352.542 54.1447 352.542 52.6596C352.436 47.4617 352.436 40.8847 352.542 32.9287C352.542 31.7619 352.648 29.0038 352.754 24.7606C352.86 20.5174 352.966 17.5472 353.072 15.956C353.072 13.8344 353.815 12.4553 355.3 11.6067C355.618 11.3946 356.255 11.0763 357.209 10.5459C358.164 10.1216 358.907 9.69727 359.437 9.48512C359.861 9.27295 360.498 9.0608 361.346 8.74255C362.195 8.42432 362.938 8.21216 363.68 8.10608C364.423 8 365.165 8 366.014 8C367.287 8.10608 368.242 8.21216 368.878 8.42432C370.363 9.0608 371.106 10.1216 371.106 11.7128C371.106 14.683 371.318 18.5019 371.848 22.9572C371.954 23.8059 372.591 24.3363 373.864 24.4424C378.956 24.8667 381.82 25.0788 382.456 25.1849C383.941 25.6092 384.896 26.7761 385.108 28.8977C385.427 32.0801 384.896 34.9442 383.411 37.3841C382.987 38.1266 381.714 38.657 379.804 38.8692H371.424ZM321.991 27.7308C322.733 20.8356 323.37 16.4864 323.794 14.683C324.112 13.0918 325.598 11.2885 328.143 9.27295C328.568 8.84863 329.31 8.63648 330.265 8.5304C331.114 8.5304 331.962 8.5304 332.599 8.74255C335.569 9.80335 337.903 11.7128 339.6 14.4709C341.297 17.2289 341.934 20.0931 341.403 22.9572C340.979 25.0788 340.343 28.2612 339.494 32.3983C338.539 36.5354 337.903 39.8239 337.478 42.1577C337.16 43.6428 336.948 45.6583 336.842 48.2042C336.63 50.7501 336.524 52.5535 336.524 53.4021C336.206 55.5237 335.357 57.221 333.872 58.7061C332.387 60.1912 330.583 61.0399 328.462 61.252C327.825 61.3581 324.961 61.5703 319.657 61.8885C317.429 62.1007 314.99 62.1007 312.444 61.8885C309.792 61.6763 307.564 61.3581 305.761 60.9338C303.957 60.6155 301.624 60.0851 298.653 59.4487C295.683 58.8122 293.455 58.2818 291.97 57.9636C288.894 57.3271 286.878 56.3723 285.818 55.0994C284.757 53.8264 284.333 51.5988 284.333 48.3103C284.333 45.9765 284.439 42.6881 284.863 38.4449C285.181 34.2017 285.393 31.3375 285.499 29.6403C285.605 27.7308 285.712 24.8667 285.712 21.0478C285.712 17.2289 285.818 14.2587 285.924 12.1371C285.924 11.7128 286.136 11.2885 286.772 10.652C287.303 10.0155 287.727 9.69727 288.151 9.69727C292.819 10.3338 296.85 10.9702 300.138 11.8189C303.321 12.6675 305.336 13.8344 306.185 15.2134C306.927 16.5925 306.927 18.8201 306.079 22.0025C306.079 22.2147 305.867 22.8512 305.655 23.8059C305.336 24.7606 305.124 25.6092 305.018 26.2457V28.8977L321.991 27.7308ZM302.154 48.8407C303.003 48.8407 304.594 48.9468 306.927 48.9468C309.261 48.9468 311.277 48.9468 312.868 48.9468C314.459 48.9468 316.05 48.8407 317.535 48.6285C318.066 48.6285 318.596 48.0981 319.233 47.0373C319.869 46.0826 320.294 45.1279 320.612 44.0671C321.354 41.309 320.612 39.8239 318.278 39.8239H302.26C302.154 41.309 302.154 42.0516 302.154 42.0516V48.8407ZM345.647 94.5611C347.344 94.5611 348.829 93.9246 350.102 92.4395C351.375 91.0604 352.011 89.3631 352.011 87.2415C352.011 84.2713 350.314 82.468 347.132 81.7254C343.631 81.0889 336.736 80.6646 326.446 80.6646H326.34C325.279 80.6646 324.431 80.8768 323.688 81.195C322.946 81.6193 322.309 82.1497 321.885 82.8923C321.46 83.6348 321.142 84.2713 320.93 84.8017C320.718 85.4382 320.506 86.1808 320.294 87.2415C320.081 87.7719 320.081 88.1963 320.081 88.6206C320.081 89.7875 320.4 90.7422 321.248 91.3787C322.097 92.1212 323.052 92.5455 324.325 92.7577C325.491 93.0759 327.083 93.2881 329.204 93.5003C331.22 93.7124 333.023 93.9246 334.614 93.9246C336.099 94.0307 338.115 94.1367 340.555 94.2428C342.995 94.455 344.586 94.5611 345.328 94.5611H345.647ZM330.053 69.8445C334.084 69.8445 338.964 70.2688 344.48 70.9053C349.996 71.5418 354.663 72.3904 358.482 73.4512C364.953 75.3606 368.56 78.7552 369.302 83.6348C369.515 84.9078 369.621 86.0747 369.621 87.1355C369.621 91.9091 367.711 95.7279 363.998 98.486C361.452 100.395 359.331 101.987 357.634 103.047C355.936 104.108 353.921 105.169 351.375 106.124C348.829 107.185 346.283 107.715 343.737 107.715C342.676 107.715 340.13 107.927 335.993 108.139C331.856 108.351 329.098 108.458 327.719 108.458C325.704 108.458 323.9 108.351 322.415 108.033C321.991 108.033 321.566 108.033 320.93 107.821C317.96 107.397 315.626 106.972 314.141 106.654C312.55 106.336 310.64 105.699 308.413 104.639C306.185 103.684 304.276 102.411 302.79 100.82C299.926 98.0617 298.547 95.5158 298.547 93.0759C298.547 88.1963 299.184 84.4835 300.669 82.0436C304.594 75.4667 312.762 71.4357 325.067 70.1627C326.658 69.9506 328.356 69.8445 330.053 69.8445Z" fill="#B4A38B"/>
<path d="M279.135 36.9598C279.029 42.4759 278.816 46.5069 278.604 49.0528C278.286 51.917 277.649 54.6751 276.801 57.3271C276.377 58.6 275.952 59.4487 275.316 59.6608C274.679 59.9791 273.618 60.0851 272.027 59.873C269.694 59.6608 268.208 59.5547 267.678 59.5547C265.981 59.6608 265.026 59.0243 264.814 57.6453C264.39 55.5237 264.071 53.4021 263.859 51.2805C263.753 50.2197 263.647 48.7346 263.541 46.7191C263.435 44.7036 263.329 43.3245 263.329 42.582C263.223 41.4151 262.586 40.5665 261.525 40.1421C260.465 39.7178 259.298 39.8239 258.131 40.4604C257.494 40.8847 257.282 41.5212 257.388 42.3698C257.494 43.7489 257.813 46.0826 258.237 49.3711C258.661 52.7656 258.873 55.3115 259.086 57.0088C259.192 58.0696 259.086 59.4487 258.661 61.252C258.449 61.8885 258.025 62.3128 257.388 62.525L251.448 64.4344C248.584 64.7526 246.568 64.5405 245.507 63.7979C244.447 63.2675 243.916 62.525 243.916 61.5702C243.492 57.0088 243.174 52.7656 242.961 49.1589C242.961 49.9015 242.643 50.7501 242.007 51.7048C241.37 52.7656 240.628 53.7204 239.885 54.7812C239.036 55.8419 238.506 56.4784 238.294 56.9027C237.976 57.3271 237.233 58.1757 236.066 59.5547C234.793 60.9338 234.157 61.7824 233.945 61.9946C232.46 63.6918 230.656 63.4797 228.535 61.3581C227.686 60.6155 226.837 59.7669 225.989 58.9183C225.034 58.0696 223.973 57.1149 222.912 56.0541C221.852 54.9933 221.003 54.2508 220.473 53.6143C218.881 55.3116 216.441 57.3271 213.153 59.6608C209.758 61.9946 207.743 63.4797 206.894 64.1162C204.348 66.4499 201.59 66.3438 198.832 64.0101C198.302 63.5858 197.135 62.9493 195.332 61.9946C193.634 61.1459 192.68 60.2973 192.467 59.4487C192.255 58.6 192.892 57.4331 194.165 55.8419C195.013 54.8872 196.392 53.6143 198.302 52.0231C200.211 50.538 201.59 49.265 202.439 48.2042C203.394 47.1434 204.985 45.7644 207.319 44.0671C209.546 42.3698 211.244 40.8847 212.41 39.7178C203.288 38.7631 198.514 38.2327 197.984 38.2327C194.589 38.0206 192.467 37.5962 191.513 36.8537C190.558 36.2172 189.815 34.2017 189.179 31.0193C188.861 29.5342 188.967 28.1551 189.497 26.8822C190.028 25.6092 190.24 24.3363 190.24 22.9572L190.664 22.1086C202.333 22.9572 208.592 23.4876 209.652 23.4876C220.579 24.3363 226.943 24.7606 228.641 24.8667C229.065 24.8667 230.02 25.0788 231.293 25.5031C232.566 25.9275 233.202 26.3518 233.096 26.5639C232.141 28.6855 231.187 30.8071 230.338 33.0348C229.489 35.2625 228.853 36.8537 228.429 37.7023C228.11 38.0206 228.004 38.3388 228.216 38.7631C228.322 39.1874 228.429 39.3996 228.429 39.6117C228.429 39.8239 228.535 40.1421 228.959 40.4604C229.277 40.7786 229.595 40.9908 229.808 41.0969C230.02 41.309 230.338 41.5212 230.762 41.7333C231.187 42.0516 231.611 42.2637 231.823 42.3698C232.035 42.4759 232.46 42.6881 232.99 42.9002C233.202 43.0063 233.308 43.1124 233.52 43.1124C233.839 43.3245 234.475 43.7489 235.43 44.2793C236.278 44.8097 237.127 45.234 237.976 45.6583C238.824 46.0826 239.461 46.4008 239.991 46.5069C241.795 46.9312 242.749 47.6738 242.961 48.7346C242.749 45.5522 242.537 42.7941 242.537 40.3543L242.007 19.1384L243.174 14.5769L249.751 14.0465C250.917 14.1526 251.872 14.2587 252.509 14.3648C253.569 14.5769 254.312 15.2134 254.842 16.1681C255.267 17.1228 255.479 17.9715 255.479 18.714L255.373 19.8809L254.948 29.6403L258.025 32.2922H260.252C261.95 32.1862 263.01 31.8679 263.541 31.4436C263.965 31.0193 264.283 30.1707 264.283 28.7916C264.177 27.7308 264.071 25.6092 263.965 22.5329C263.859 19.4566 263.859 17.1228 263.859 15.4256C263.753 14.1526 263.965 13.4101 264.602 12.9857C265.132 12.5614 266.193 12.3493 267.784 12.2432C272.77 12.1371 276.27 13.4101 278.392 15.956C278.71 16.3803 278.922 16.9107 279.135 17.4411C279.347 18.0776 279.453 18.714 279.665 19.3505C279.771 20.0931 279.877 20.6235 280.089 20.9417C279.877 20.9417 279.665 22.9572 279.453 26.8822C279.241 30.9132 279.135 34.2017 279.135 36.9598ZM229.171 11.8189C228.959 12.4553 228.641 13.304 228.322 14.4709C228.004 15.7438 227.686 16.8046 227.474 17.6532C227.262 18.608 227.049 19.4566 227.049 20.1992C226.837 21.1539 226.625 21.6843 226.201 21.8964C225.777 22.1086 225.246 22.1086 224.397 22.0025C223.018 22.0025 220.897 21.7904 218.033 21.4721C215.062 21.1539 212.835 20.9417 211.35 20.7296C209.122 20.6235 207.319 19.7748 205.94 18.2897C204.561 16.8046 203.818 15.0013 203.818 12.8797C203.818 12.4553 203.924 12.031 204.348 11.5006C204.667 10.9702 204.985 10.652 205.197 10.652C206.152 10.652 207.955 10.4398 210.607 10.1216C213.259 9.90943 215.275 9.69726 216.654 9.59119C218.033 9.59119 219.836 9.59119 221.958 9.80334C224.079 10.0155 225.989 10.4398 227.792 11.0763L229.171 11.8189ZM201.378 73.4512C201.59 73.4512 203.182 73.0269 206.152 72.1782C209.122 71.3296 211.35 70.9053 212.835 70.9053C213.471 70.9053 214.108 71.0113 214.85 71.1174C215.699 71.3296 216.654 71.4357 217.821 71.4357C218.351 71.4357 219.2 71.4357 220.26 71.3296C221.321 71.3296 222.064 71.2235 222.594 71.2235C223.125 71.2235 223.867 71.3296 224.928 71.3296C225.989 71.4357 226.731 71.4357 227.262 71.4357C229.065 71.4357 230.974 71.3296 232.99 71.1174C234.899 70.9053 237.127 70.481 239.461 70.0566C241.795 69.6323 243.704 69.4202 244.977 69.208C246.462 68.9958 248.053 68.8897 249.857 68.8897C251.448 68.8897 254.206 69.1019 258.025 69.3141C261.844 69.5262 264.283 69.6323 265.344 69.6323C265.662 69.6323 265.875 69.8445 266.087 70.0566C267.36 72.6025 268.102 75.7849 268.421 79.6038C268.527 81.4072 268.633 82.7862 268.633 83.7409C268.633 85.4382 268.527 87.0294 268.421 88.5145C268.314 90.1057 268.208 91.9091 267.996 94.0307C267.784 96.1522 267.678 97.7434 267.678 98.6982C267.466 99.865 266.723 101.881 265.238 104.745C264.814 105.593 264.177 106.336 263.435 106.76C262.586 107.185 261.95 107.503 261.419 107.503L259.086 107.821C257.813 107.927 256.858 108.033 256.327 108.139C255.585 108.351 254.524 108.457 253.039 108.67C251.554 108.882 250.599 108.988 249.963 109.094C249.538 109.2 249.114 109.2 248.902 109.2C247.417 109.2 246.674 108.351 246.674 106.548C246.462 99.1225 246.356 93.9246 246.356 90.8483C246.25 88.5145 245.189 87.3476 243.28 87.3476C243.068 87.3476 242.855 87.4537 242.643 87.4537C241.582 87.5598 239.991 87.7719 238.082 88.1963C236.172 88.6206 234.899 88.8327 234.369 88.8327C233.839 88.9388 232.778 89.151 231.08 89.3631C229.383 89.6814 228.004 89.8935 226.837 89.9996C225.67 90.2118 224.504 90.2118 223.443 90.2118C220.685 90.2118 215.062 89.8935 206.682 89.151C206.258 89.151 205.727 88.9388 205.197 88.6206C204.667 88.3023 204.454 87.9841 204.454 87.6659C204.242 86.9233 203.818 85.9686 203.182 84.6956C202.545 83.4227 202.333 82.1497 202.333 80.8768C202.333 80.6646 202.121 79.922 201.696 78.8612C201.272 77.8005 201.166 76.9518 201.59 76.3153C201.59 76.1032 201.696 75.891 201.696 75.6789C201.696 75.3606 201.59 74.9363 201.484 74.512C201.378 74.0877 201.378 73.7694 201.378 73.4512Z" fill="#B4A38B"/>
</g>
<g filter="url(#filter1_i_265_107)">
<path d="M101.78 90.08C101.78 92.04 101.453 93.8133 100.8 95.4C100.24 95.7733 99.96 96.38 99.96 97.22C99.12 97.78 98.56 98.4333 98.28 99.18C97.72 99.5533 97.3933 100.113 97.3 100.86C96.8333 101.047 96.6 101.373 96.6 101.84C96.2267 101.84 95.8067 102.12 95.34 102.68L94.5 103.52C93.0067 104.08 92.0733 104.78 91.7 105.62C91.2333 105.62 90.6267 105.9 89.88 106.46C89.1333 106.46 88.5733 106.787 88.2 107.44C87.36 107.44 86.7067 107.767 86.24 108.42C85.0267 108.42 84.14 108.7 83.58 109.26C81.9933 109.26 80.9667 109.54 80.5 110.1C79.1933 110.1 78.2133 110.38 77.56 110.94L76.58 110.8C76.1133 110.8 75.6 111.033 75.04 111.5C74.48 111.407 73.08 111.36 70.84 111.36C68.4133 111.36 66.36 111.64 64.68 112.2C63.28 111.827 61.46 111.593 59.22 111.5L59.08 110.94H58.52C57.5867 110.38 56 110.1 53.76 110.1L52.5 109.96L47.18 108.42C46.7133 107.767 45.8267 107.44 44.52 107.44C43.96 106.413 42.98 105.807 41.58 105.62C40.9267 104.967 40.3667 104.64 39.9 104.64C39.7133 103.987 39.3867 103.613 38.92 103.52C38.5467 102.493 37.94 101.607 37.1 100.86C36.54 99.6467 35.8867 98.4333 35.14 97.22C35.2333 97.0333 35.28 96.7067 35.28 96.24C35.28 95.8667 35 95.12 34.44 94L34.16 93.3V91.62C34.44 91.06 34.58 90.5933 34.58 90.22L34.16 87.98C34.3467 87.8867 34.3933 87.7467 34.3 87.56C34.3 87.3733 34.2533 87.2333 34.16 87.14C34.8133 87.0467 35.14 86.3933 35.14 85.18C35.42 85.0867 35.42 84.8533 35.14 84.48C35.8867 84.1067 36.26 83.5 36.26 82.66C36.7267 82.5667 36.96 82.1933 36.96 81.54C37.6133 81.54 37.9867 81.2133 38.08 80.56C38.4533 80.56 38.7333 80.28 38.92 79.72C39.5733 79.72 39.9 79.4867 39.9 79.02C40.18 78.9267 40.5533 78.5533 41.02 77.9C41.1133 77.9933 41.2067 78.04 41.3 78.04C41.4867 77.9467 41.58 77.8533 41.58 77.76C42.0467 77.76 42.3733 77.5267 42.56 77.06C43.4933 77.06 44.1467 76.5933 44.52 75.66C44.8 75.8467 44.9867 75.8933 45.08 75.8C45.2667 75.6133 45.36 75.38 45.36 75.1L50.54 73.56C53.9 72.3467 57.0267 71.5067 59.92 71.04C62.9067 70.48 66.1733 70.2 69.72 70.2C75.4133 70.2 81.5733 70.8067 88.2 72.02C88.9467 72.3933 90.1133 72.86 91.7 73.42C92.3533 74.0733 93.5667 74.96 95.34 76.08C95.34 76.7333 95.6667 77.06 96.32 77.06C96.4133 77.1533 96.5533 77.34 96.74 77.62C96.9267 77.8067 97.1133 77.9 97.3 77.9L98.14 79.02C100.567 82.94 101.78 86.6267 101.78 90.08ZM180.18 95.4C179.62 95.5867 179.34 96.24 179.34 97.36L179.2 97.64V97.78C178.733 97.9667 178.5 98.4333 178.5 99.18C177.66 99.46 177.24 100.02 177.24 100.86C176.773 101.047 176.493 101.373 176.4 101.84C175.933 101.84 175.653 102.213 175.56 102.96C175 102.96 174.673 103.147 174.58 103.52C174.113 103.707 173.88 104.08 173.88 104.64C173.507 104.827 173.133 105.153 172.76 105.62C171.547 105.713 170.66 106.32 170.1 107.44C169.82 107.44 169.447 107.533 168.98 107.72C168.607 107.907 168.28 108.14 168 108.42C166.6 108.793 165.293 109.353 164.08 110.1H163.94L163.38 110.38C162.82 110.38 162.493 110.567 162.4 110.94C161.373 111.313 160.44 111.5 159.6 111.5H158.06C156.007 111.5 154.607 111.733 153.86 112.2C153.487 111.64 152.927 111.36 152.18 111.36C151.807 111.36 151.2 111.64 150.36 112.2C149.613 112.293 147.513 112.34 144.06 112.34C143.967 112.247 143.733 112.153 143.36 112.06C143.08 111.967 142.847 112.013 142.66 112.2C141.447 111.64 139.813 111.36 137.76 111.36C136.08 111.36 135.1 111.407 134.82 111.5L134.4 110.94H133.98C133.327 110.287 132.3 110.1 130.9 110.38C130.527 110.007 130.06 109.913 129.5 110.1C128.38 109.54 127.633 109.353 127.26 109.54L127.12 109.26H126.56C126.187 108.7 125.487 108.42 124.46 108.42C123.807 107.767 122.92 107.44 121.8 107.44C121.053 106.88 120.447 106.507 119.98 106.32C119.887 105.853 119.513 105.62 118.86 105.62C118.673 105.527 118.44 105.34 118.16 105.06C117.88 104.78 117.6 104.593 117.32 104.5L116.34 103.52C115.78 102.4 115.173 101.793 114.52 101.7C113.68 100.673 113.073 99.74 112.7 98.9C112.513 98.4333 112.233 97.8267 111.86 97.08C111.58 96.3333 111.113 95.7733 110.46 95.4C110.367 93.8133 109.807 92.1333 108.78 90.36C108.873 89.8 108.873 89.2867 108.78 88.82L108.5 83.36C108.5 80.3733 108.873 77.8067 109.62 75.66C110.18 75.4733 110.46 75.0067 110.46 74.26C111.207 74.0733 111.673 73.8867 111.86 73.7C112.14 73.42 112.28 73 112.28 72.44C112.84 72.0667 113.26 71.6933 113.54 71.32C114.66 71.04 115.593 70.4333 116.34 69.5C118.113 69.5 119.327 69.4533 119.98 69.36L123.76 69.08C130.48 69.08 135.66 72.0667 139.3 78.04C141.167 81.2133 143.547 83.7333 146.44 85.6C149.333 87.4667 152.367 88.4 155.54 88.4C157.873 88.4 160.207 87.8867 162.54 86.86H162.96C163.24 86.86 163.567 86.6733 163.94 86.3L164.5 86.16C164.967 86.16 165.34 85.8333 165.62 85.18C165.9 85.18 166.087 85.1333 166.18 85.04C166.833 85.1333 167.16 84.8533 167.16 84.2L170.24 82.52L172.34 82.24C173.367 82.24 174.72 82.38 176.4 82.66C176.493 83.1267 176.867 83.36 177.52 83.36C177.52 83.92 177.847 84.2 178.5 84.2C178.5 84.76 178.733 85.18 179.2 85.46C179.2 86.9533 179.527 87.98 180.18 88.54V88.82C180.087 89.1933 180.04 90.0333 180.04 91.34C180.04 93.02 180.087 94.14 180.18 94.7C180.087 94.7 180.087 94.9333 180.18 95.4ZM35.14 71.6C34.9533 71.6 34.6733 71.8333 34.3 72.3C33.9267 72.6733 33.6467 72.9533 33.46 73.14H33.32L33.04 72.72L32.76 73.14C31.64 72.3933 30.5667 71.9733 29.54 71.88C29.4467 71.4133 29.12 71.18 28.56 71.18L26.88 70.2C26.32 68.8933 25.3867 68.24 24.08 68.24C23.9867 67.7733 23.7067 67.4933 23.24 67.4C23.1467 66.84 22.82 66.5133 22.26 66.42C22.26 65.58 21.8867 64.9733 21.14 64.6C21.14 63.9467 20.9067 63.62 20.44 63.62C20.44 62.4067 20.0667 61.6133 19.32 61.24C19.32 59.84 18.9933 58.72 18.34 57.88L18.62 56.76L18.34 55.36V54.66C18.34 54.0067 17.9667 53.82 17.22 54.1C15.6333 54.8467 14.42 55.8733 13.58 57.18C12.18 58.02 10.92 59.3733 9.8 61.24C9.42667 61.52 8.91333 61.8933 8.26 62.36C7.60667 62.8267 6.95333 63.0133 6.3 62.92L6.02 62.78H5.74C5.64667 62.22 5.22667 61.94 4.48 61.94C4.38667 61.0067 4.06 60.4467 3.5 60.26V59.84C3.5 59.6533 3.40667 59.4667 3.22 59.28C3.03333 59.0933 2.84667 59 2.66 59C1.72667 57.7867 1.26 56.5733 1.26 55.36C1.26 54.8 1.44667 53.96 1.82 52.84C2.38 52.7467 2.66 52.3733 2.66 51.72C3.40667 51.72 3.96667 51.3933 4.34 50.74C4.9 50.74 5.32 50.5533 5.6 50.18C5.78667 50.0867 6.16 49.8533 6.72 49.48C7.28 49.0133 7.93333 48.5467 8.68 48.08C9.14667 48.2667 9.52 48.22 9.8 47.94H10.5C11.2467 47.94 11.7133 47.7067 11.9 47.24C12.74 47.24 13.2533 47.1467 13.44 46.96L14.7 47.24C15.0733 47.24 15.4467 47.1467 15.82 46.96C16.2867 46.4933 16.52 46.12 16.52 45.84C16.52 45.56 16.1467 45.3733 15.4 45.28L13.58 45.14C13.2067 44.1133 12.32 43.6 10.92 43.6C10.08 42.1067 9.14667 41.0333 8.12 40.38C8.12 39.82 7.84 39.4467 7.28 39.26C7.28 38.7 6.95333 38.0933 6.3 37.44C6.39333 37.3467 6.44 37.2533 6.44 37.16C6.44 36.9733 6.39333 36.8333 6.3 36.74V35.9C6.3 34.4067 5.97333 33.38 5.32 32.82C5.69333 32.6333 5.78667 32.1667 5.6 31.42C6.16 31.14 6.44 30.5333 6.44 29.6C7 29.04 7.28 28.3867 7.28 27.64C7.93333 27.1733 8.26 26.6133 8.26 25.96C8.54 25.96 8.72667 25.8667 8.82 25.68C9.00667 25.4 9.1 25.1667 9.1 24.98C9.56667 24.8867 9.89333 24.56 10.08 24C10.8267 23.6267 11.4333 23.2067 11.9 22.74H12.46C12.9267 22.74 13.3 22.5533 13.58 22.18C14.2333 21.9933 15.3067 21.8533 16.8 21.76C18.3867 21.6667 19.6467 21.5733 20.58 21.48L21.56 20.92H22.96L23.38 21.34H23.94C24.9667 21.9933 25.5733 22.32 25.76 22.32C25.8533 22.2267 25.9933 22.0867 26.18 21.9C26.46 21.62 26.6933 21.2933 26.88 20.92L27.16 20.78L26.88 20.64C27.44 19.8933 27.72 19.24 27.72 18.68C27.72 18.4 27.6267 17.98 27.44 17.42L28 17.14L27.72 16.58C28.1867 16.2067 28.5133 15.8333 28.7 15.46C29.1667 15.3667 29.4 15.04 29.4 14.48C30.4267 13.64 31.22 12.7533 31.78 11.82C32.1533 11.82 32.4333 11.4933 32.62 10.84C33.9267 10.3733 34.9067 9.81333 35.56 9.16H35.7L36.12 9.02H36.54C37.2867 9.02 37.8933 8.78666 38.36 8.32H38.64L38.78 7.76C39.4333 7.76 40.18 7.57333 41.02 7.2L43.26 7.47999L45.78 7.2C46.1533 7.57333 46.9 7.76 48.02 7.76C48.6733 8.32 49.28 8.32 49.84 7.76C50.12 8.41333 50.4933 8.78666 50.96 8.88C51.52 8.97333 52.1267 9.02 52.78 9.02L53.06 9.16H53.2C53.9467 9.90666 54.9733 10.6067 56.28 11.26C56.3733 11.6333 56.7 11.82 57.26 11.82C57.26 12.4733 57.54 12.8 58.1 12.8C58.38 13.36 58.7533 13.64 59.22 13.64C59.22 14.2 59.5 14.5733 60.06 14.76C59.9667 14.8533 59.92 14.9933 59.92 15.18C60.0133 15.2733 60.1067 15.3667 60.2 15.46C60.2 15.8333 60.48 16.2067 61.04 16.58L60.9 17.14L61.04 17.42L61.32 22.74C61.04 23.2067 60.9467 23.4867 61.04 23.58C60.6667 23.86 60.3867 24.1867 60.2 24.56C60.1067 24.9333 60.2467 25.1667 60.62 25.26C60.9 25.6333 61.2733 25.82 61.74 25.82C62.2067 25.82 62.6267 25.68 63 25.4C63.3733 25.7733 63.6533 25.96 63.84 25.96C64.0267 26.4267 64.3533 26.66 64.82 26.66C68.18 28.5267 70.42 31 71.54 34.08V35.06C71.54 35.9 71.7267 36.6467 72.1 37.3C71.54 38.6067 71.3533 39.96 71.54 41.36C71.0733 42.6667 70.3267 44.0667 69.3 45.56C68.2733 47.0533 67.48 48.1733 66.92 48.92C66.64 48.92 65.8933 49.2 64.68 49.76C63.56 50.32 62.72 50.6 62.16 50.6C61.2267 50.6933 60.62 50.88 60.34 51.16C60.1533 51.44 60.0133 52.0933 59.92 53.12C59.5467 56.48 58.9867 59.28 58.24 61.52C57.4933 63.6667 56.28 65.58 54.6 67.26C53.5733 68.2867 51.9867 69.36 49.84 70.48C47.7867 71.6 46.1533 72.4867 44.94 73.14L44.8 72.72L44.24 73.14C43.5867 73.3267 42 73.42 39.48 73.42H38.08C36.96 73.42 36.3067 73.14 36.12 72.58C35.7467 71.9267 35.42 71.6 35.14 71.6ZM108.36 38.28C107.8 39.68 107.52 42.2933 107.52 46.12L107.38 46.54L107.52 46.68L107.38 47.38C107.007 48.0333 106.82 49.1533 106.82 50.74V51.72C106.727 51.8133 106.68 52.3733 106.68 53.4C106.12 53.96 105.84 54.6133 105.84 55.36C105.28 55.92 105 56.5267 105 57.18C104.253 57.74 103.88 58.6267 103.88 59.84C103.507 60.2133 103.133 61.1 102.76 62.5C102.107 62.9667 101.78 63.34 101.78 63.62C101.407 63.62 101.22 63.9467 101.22 64.6C100.66 64.6933 100.38 65.0667 100.38 65.72C99.6333 66.4667 99.2133 67.0267 99.12 67.4C98.4667 67.4 98.14 67.68 98.14 68.24C97.58 68.52 97.0667 68.8933 96.6 69.36C95.3867 69.4533 93.9867 70.06 92.4 71.18L92.12 71.04L91.98 71.18C91.14 71.18 90.6267 71.1333 90.44 71.04C90.0667 70.9467 89.4133 70.6667 88.48 70.2C87.5467 69.64 86.8 69.08 86.24 68.52C86.24 67.4933 86.3333 66.6067 86.52 65.86C88.2 63.8067 89.3667 61.5667 90.02 59.14C90.7667 56.62 91.3267 53.2133 91.7 48.92L92.12 46.68C92.12 46.4 92.0267 46.26 91.84 46.26C91.6533 46.1667 91.42 46.12 91.14 46.12C90.86 46.12 90.6267 46.26 90.44 46.54C90.3467 46.82 90.2067 47.0533 90.02 47.24C89.18 52.7467 88.5267 56.5267 88.06 58.58C87.5933 60.6333 86.7067 62.7333 85.4 64.88C84.6533 65.6267 84.0467 66.4667 83.58 67.4L79.38 68.52C79.0067 68.6133 78.26 68.66 77.14 68.66C75.0867 68.66 73.2667 68.1467 71.68 67.12C70.0933 66.0933 68.9267 64.6933 68.18 62.92C66.8733 59.6533 66.22 57.18 66.22 55.5C66.22 53.9133 66.78 52.14 67.9 50.18C70.0467 48.3133 71.54 46.1667 72.38 43.74C72.94 43.6467 73.22 43.1333 73.22 42.2L73.36 41.08C73.92 40.24 73.92 39.5867 73.36 39.12C73.4533 38.7467 73.5933 38.3267 73.78 37.86C74.06 37.3 74.2 36.88 74.2 36.6C74.2 35.76 73.92 35.1533 73.36 34.78C73.08 30.6733 70.9333 27.5467 66.92 25.4C66.64 25.3067 66.36 24.84 66.08 24L65.94 23.58V20.92C66.5933 20.4533 66.92 19.8467 66.92 19.1V18.96C67.6667 18.0267 68.2733 16.86 68.74 15.46C69.3933 15.46 69.7667 15.18 69.86 14.62C70.6067 14.5267 71.4467 13.92 72.38 12.8C74.62 12.8 76.8133 12.4267 78.96 11.68L79.24 11.82H79.66C80.22 12.4733 80.8267 12.8 81.48 12.8C81.76 13.1733 82.18 13.5467 82.74 13.92C83.3 14.2933 83.7667 14.5267 84.14 14.62C84.6067 15.74 85.3067 16.6733 86.24 17.42C86.24 17.7 86.4267 18.0267 86.8 18.4C87.2667 18.7733 87.5 19.0067 87.5 19.1C87.5933 20.78 88.4333 23.86 90.02 28.34V28.9C90.02 30.3 90.6733 31.42 91.98 32.26V30.3C91.98 27.9667 91.7 26.24 91.14 25.12V24.56C91.14 23.2533 90.6733 21.6667 89.74 19.8C88.9933 17.84 88.62 16.58 88.62 16.02C88.62 15.74 88.8067 14.9467 89.18 13.64C89.74 13.64 90.02 13.36 90.02 12.8L94.5 10.84H97.3C97.6733 11.4 98.14 11.7267 98.7 11.82C99.3533 11.82 99.9133 11.82 100.38 11.82C101.593 12.8467 102.527 13.7333 103.18 14.48C103.18 14.5733 103.273 14.62 103.46 14.62C103.647 15.18 103.973 15.5533 104.44 15.74C104.627 16.1133 104.813 16.6267 105 17.28C105.28 17.84 105.56 18.2133 105.84 18.4V18.96L105.98 19.1C105.98 20.22 106.213 20.8267 106.68 20.92C106.68 23.3467 106.96 24.84 107.52 25.4C107.52 26.8933 107.847 28.06 108.5 28.9C108.407 29.46 108.36 30.8133 108.36 32.96C108.36 34.4533 108.407 35.3867 108.5 35.76C108.033 36.04 108.033 36.4133 108.5 36.88V37.44C108.5 37.9067 108.453 38.1867 108.36 38.28ZM187.74 52.56C186.993 53.3067 186.713 54.24 186.9 55.36L186.76 55.78V55.92C186.013 56.6667 185.64 57.3667 185.64 58.02C185.08 58.9533 184.8 59.56 184.8 59.84C184.24 59.84 183.867 60.0733 183.68 60.54C183.4 61.0067 182.42 61.94 180.74 63.34L180.18 63.9C175.7 64.6467 173.32 67.3533 173.04 72.02C173.04 72.58 172.807 73.14 172.34 73.7C171.967 73.98 171.78 74.3533 171.78 74.82C171.313 75.1 170.8 75.94 170.24 77.34C169.773 78.6467 169.4 79.3933 169.12 79.58C168.187 79.86 167.533 80.42 167.16 81.26C167.067 81.7267 166.553 82.1933 165.62 82.66C165.153 82.66 164.78 82.8933 164.5 83.36C163.753 83.36 163.38 83.5933 163.38 84.06C162.82 84.2467 162.54 84.3867 162.54 84.48C162.447 84.3867 162.26 84.3867 161.98 84.48C161.793 84.5733 161.653 84.76 161.56 85.04L160.86 85.18H155.4C152.507 84.5267 150.127 83.6867 148.26 82.66C146.487 81.54 144.947 79.9533 143.64 77.9C141.493 74.4467 138.88 71.6 135.8 69.36C132.72 67.0267 129.36 65.8133 125.72 65.72C120.027 65.72 115.873 65.44 113.26 64.88C112.98 64.32 112.513 63.8067 111.86 63.34C111.393 62.5933 110.927 62.1733 110.46 62.08C110.273 61.8 109.993 61.2867 109.62 60.54C109.34 59.7 109.06 59.14 108.78 58.86C108.78 58.1133 108.687 57.5533 108.5 57.18C108.5 55.5 108.593 54.0067 108.78 52.7L108.92 52.56L108.78 51.86C109.34 51.02 109.62 49.76 109.62 48.08L109.76 47.94L109.62 47.52C109.993 47.24 110.227 46.8667 110.32 46.4C110.507 45.84 110.6 45.4667 110.6 45.28C111.16 45.28 111.44 45 111.44 44.44L113.26 42.62L115.36 42.2C116.573 42.2 117.787 42.6667 119 43.6C122.92 46.2133 127.167 48.0333 131.74 49.06C136.407 49.9933 141.54 50.46 147.14 50.46C148.913 50.46 151.853 50.2733 155.96 49.9C160.253 49.06 163.613 48.22 166.04 47.38C168.467 46.4467 170.8 45.0933 173.04 43.32H173.32C173.6 43.32 174.02 42.9467 174.58 42.2C175.327 42.2 175.7 42.0133 175.7 41.64C175.887 41.64 176.213 41.5933 176.68 41.5C177.147 41.3133 177.473 41.08 177.66 40.8C178.313 40.8 178.873 40.38 179.34 39.54L182.98 39.82C182.98 40.1933 183.26 40.38 183.82 40.38C184.1 41.0333 184.427 41.36 184.8 41.36L185.64 42.62C185.64 42.8067 185.733 43.04 185.92 43.32C186.2 43.5067 186.48 43.6 186.76 43.6C186.947 43.7867 187.04 44.0667 187.04 44.44L186.9 45.98C186.9 46.6333 187.18 47.0533 187.74 47.24V52.56ZM112.28 29.6C112.747 29.1333 112.98 28.5733 112.98 27.92C112.98 27.64 112.887 27.3133 112.7 26.94C112.513 26.5667 112.373 26.24 112.28 25.96L112.7 25.26C113.073 24.5133 113.26 23.6733 113.26 22.74C113.727 22.6467 114.007 22.5067 114.1 22.32C114.287 22.04 114.333 21.5733 114.24 20.92L114.52 20.78V20.64C115.267 19.8 115.733 19.0067 115.92 18.26C116.947 17.7 117.647 17.0467 118.02 16.3C118.58 16.3 118.86 16.02 118.86 15.46C119.327 15.0867 119.747 14.7133 120.12 14.34C120.493 13.9667 120.773 13.7333 120.96 13.64C121.52 13.64 121.847 13.4067 121.94 12.94C122.407 12.66 123.013 12.3333 123.76 11.96C124.6 11.5867 125.207 11.2133 125.58 10.84C125.86 10.84 126.28 10.7933 126.84 10.7C127.4 10.5133 127.82 10.2333 128.1 9.86C129.033 9.86 129.78 9.58 130.34 9.02C130.62 9.29999 130.807 9.15999 130.9 8.59999C131.553 8.69333 132.067 8.59999 132.44 8.32H132.58L132.72 7.76H134.4C135.427 7.76 136.173 7.57333 136.64 7.2L144.06 6.91999C144.62 7.19999 145.087 7.33999 145.46 7.33999C146.113 7.33999 146.86 7.19999 147.7 6.91999H148.54C149.193 7.29333 149.707 7.38666 150.08 7.2C150.827 7.94666 151.62 8.32 152.46 8.32L155.4 7.76H156.24L156.38 8.32H156.94C157.127 8.78666 157.78 9.02 158.9 9.02L159.18 9.16H159.46C159.647 9.34666 159.973 9.53333 160.44 9.72C160.907 9.90666 161.327 9.95333 161.7 9.86L161.84 9.99999H162.4C164.36 11.12 165.947 11.68 167.16 11.68C167.627 12.4267 168.28 12.8 169.12 12.8C169.4 13.4533 170.053 13.6867 171.08 13.5C171.733 14.1533 172.293 14.5267 172.76 14.62C172.947 15.0867 173.32 15.3667 173.88 15.46C174.533 16.3933 175.14 16.9533 175.7 17.14V17.42C175.7 17.7 175.98 17.98 176.54 18.26C176.633 18.6333 176.867 19.1467 177.24 19.8C177.613 20.36 178.033 20.7333 178.5 20.92C178.5 21.48 178.733 21.9 179.2 22.18C179.2 23.02 179.527 23.6267 180.18 24L180.32 28.9C180.32 30.1133 180.273 30.9067 180.18 31.28H180.04L180.18 31.98C179.62 32.3533 179.2 32.96 178.92 33.8C178.64 34.5467 178.407 35.2 178.22 35.76C177.38 36.04 176.82 36.6933 176.54 37.72C175.7 38.7467 175.093 39.3533 174.72 39.54C174.253 39.54 173.927 39.7733 173.74 40.24C173.553 40.24 173.227 40.3333 172.76 40.52C172.387 40.7067 172.06 40.9867 171.78 41.36C171.313 41.36 171.08 41.64 171.08 42.2C162.587 46.3067 155.073 48.08 148.54 47.52L135.24 46.54C132.627 46.26 130.013 45.6533 127.4 44.72C124.88 43.7867 121.8 42.34 118.16 40.38C118.067 40.1933 117.88 40.0067 117.6 39.82C117.413 39.6333 117.18 39.54 116.9 39.54C116.9 39.3533 116.807 39.1667 116.62 38.98C116.433 38.7933 116.2 38.7 115.92 38.7C115.92 38.14 115.733 37.72 115.36 37.44C115.173 36.9733 114.893 36.6933 114.52 36.6C114.52 36.4133 114.38 36.0867 114.1 35.62C113.913 35.1533 113.633 34.78 113.26 34.5C113.54 34.22 113.54 34.08 113.26 34.08C113.26 32.12 112.933 30.6267 112.28 29.6ZM41.86 88.82C41.6733 88.82 41.58 89.0067 41.58 89.38C41.7667 90.5 42.2333 91.06 42.98 91.06C42.98 91.1533 43.0267 91.1533 43.12 91.06C43.2133 90.8733 43.3067 90.64 43.4 90.36C43.4 89.8 42.8867 89.2867 41.86 88.82ZM43.96 83.36C43.0267 84.0133 42.3733 84.6667 42 85.32C41.72 85.9733 41.58 86.86 41.58 87.98C42.5133 87.6067 43.12 86.9533 43.4 86.02C43.7733 84.9933 43.96 84.1067 43.96 83.36ZM58.52 76.08C58.0533 76.08 57.6333 76.2667 57.26 76.64C57.1667 77.0133 57.3067 77.3867 57.68 77.76C58.4267 77.76 58.8933 77.5733 59.08 77.2C59.1733 76.7333 58.9867 76.36 58.52 76.08ZM76.02 101.14C75.9267 101.14 75.8333 101.233 75.74 101.42C75.6467 101.513 75.74 101.607 76.02 101.7H76.3V101.14H76.02ZM83.72 94L83.02 94.14C82.9267 94.7 83.1133 94.98 83.58 94.98L84.14 94.7L83.72 94ZM88.2 83.92C87.7333 83.92 87.5 84.2467 87.5 84.9C87.5 85.46 87.7333 85.6467 88.2 85.46L88.9 84.48C88.9 84.1067 88.6667 83.92 88.2 83.92ZM111.86 79.02H111.3C111.207 79.02 111.253 79.2067 111.44 79.58L111.86 79.3V79.02ZM121.52 101.28C121.52 100.813 121.24 100.487 120.68 100.3C120.493 100.207 120.213 100.16 119.84 100.16C119.84 98.76 119.233 97.8267 118.02 97.36C118.02 97.2667 117.927 97.1267 117.74 96.94C117.647 96.7533 117.553 96.66 117.46 96.66C117.087 96.66 116.9 96.8933 116.9 97.36C117.367 98.2 118.347 99.1333 119.84 100.16V101C119.84 101.187 119.887 101.467 119.98 101.84C120.167 102.12 120.4 102.353 120.68 102.54C121.053 102.54 121.24 102.4 121.24 102.12C121.427 102.027 121.52 101.747 121.52 101.28ZM122.08 86.3C122.08 86.02 122.033 85.8333 121.94 85.74C121.473 85.74 121.24 85.7867 121.24 85.88C121.053 86.2533 121.147 86.58 121.52 86.86C121.613 86.86 121.8 86.6733 122.08 86.3ZM132.58 77.9C132.58 77.4333 132.44 77.2 132.16 77.2L131.46 77.34L131.88 78.04C132.067 78.1333 132.207 78.18 132.3 78.18C132.487 78.0867 132.58 77.9933 132.58 77.9ZM151.2 69.5C151.2 68.7533 150.92 68.3333 150.36 68.24C150.267 68.1467 150.173 68.1933 150.08 68.38C149.987 68.5667 149.987 68.7533 150.08 68.94C150.173 69.3133 150.267 69.64 150.36 69.92C150.547 70.2 150.733 70.34 150.92 70.34C151.107 70.5267 151.2 70.2467 151.2 69.5ZM161 70.9C161 70.62 160.813 70.48 160.44 70.48L160.3 70.9L160.44 71.04C160.813 71.1333 161 71.0867 161 70.9ZM177.52 91.9C177.24 91.9 177.147 92.04 177.24 92.32C177.427 92.32 177.52 92.3667 177.52 92.46L177.94 92.32L177.52 91.9ZM29.54 34.78C29.54 34.1267 29.2133 33.66 28.56 33.38C26.88 32.9133 24.6867 32.7733 21.98 32.96C21.5133 32.3067 20.6267 32.0733 19.32 32.26C18.1067 32.82 17.9667 33.4267 18.9 34.08C18.9933 34.1733 19.1333 34.36 19.32 34.64C19.6 34.92 19.9267 34.9667 20.3 34.78C20.86 34.9667 21.7467 35.2467 22.96 35.62C24.1733 35.9 25.34 36.04 26.46 36.04C27.2067 36.04 27.7667 35.9933 28.14 35.9C28.98 35.9 29.4467 35.62 29.54 35.06V34.78ZM30.1 31.98C29.7267 32.1667 29.6333 32.3067 29.82 32.4C29.82 32.7733 30.0067 32.96 30.38 32.96C30.66 32.8667 30.8 32.7733 30.8 32.68C30.8933 32.4933 30.8933 32.3533 30.8 32.26L30.1 31.98ZM37.8 59.7C37.8 61.8467 38.4067 62.78 39.62 62.5C40.46 62.5 40.88 62.0333 40.88 61.1C40.88 56.9 41.16 51.72 41.72 45.56V44.86L41.86 43.6C41.86 42.9467 41.5333 42.62 40.88 42.62L40.46 42.48C39.4333 42.48 38.8733 43.1333 38.78 44.44C38.5 45.3733 38.2667 46.7267 38.08 48.5C37.9867 50.18 37.8933 51.6267 37.8 52.84C37.6133 53.2133 37.52 53.9133 37.52 54.94L37.8 59.7ZM41.3 27.22C41.4867 27.4067 41.7667 27.5 42.14 27.5C42.7 27.5 43.0733 27.2667 43.26 26.8C43.6333 25.8667 44.0533 24.7 44.52 23.3C45.08 21.8067 45.36 20.5933 45.36 19.66C45.36 18.82 45.3133 18.3067 45.22 18.12H44.8C44.1467 18.12 43.68 18.3067 43.4 18.68C43.12 19.0533 42.7933 19.66 42.42 20.5L41.02 25.4C40.8333 26.52 40.9267 27.1267 41.3 27.22ZM56.7 35.76C53.9933 35.76 51.8467 36.6 50.26 38.28C51.38 39.0267 53.1533 39.4 55.58 39.4C57.7267 39.4 59.22 39.0267 60.06 38.28C60.62 38.0933 60.9 37.6267 60.9 36.88C60.9 36.6933 60.76 36.5067 60.48 36.32C60.2 36.04 59.8733 35.9 59.5 35.9L56.7 35.76ZM60.62 29.6C60.62 29.7867 60.8533 29.88 61.32 29.88C62.16 29.6933 62.58 29.2267 62.58 28.48L61.88 28.06C61.6933 28.2467 61.4133 28.48 61.04 28.76C60.6667 28.9467 60.5267 29.2267 60.62 29.6ZM101.22 18.4L100.66 18.96C100.66 19.4267 100.707 19.66 100.8 19.66C101.453 19.8467 101.78 19.66 101.78 19.1L101.22 18.4ZM101.78 30.58C101.5 30.6733 101.36 30.9067 101.36 31.28L101.5 32.12C101.687 32.0267 101.827 31.8867 101.92 31.7C102.107 31.5133 102.2 31.3733 102.2 31.28L101.78 30.58ZM137.06 26.94C137.527 26.94 137.993 26.52 138.46 25.68C139.02 24.84 139.3 24.0467 139.3 23.3C139.207 22.9267 138.973 22.6467 138.6 22.46C138.32 22.18 137.993 22.0867 137.62 22.18C136.873 22.2733 136.36 22.5533 136.08 23.02C135.893 23.4867 135.753 24.2333 135.66 25.26C135.66 26.38 136.08 26.94 136.92 26.94H137.06ZM148.82 40.8H148.4C148.12 41.08 148.167 41.22 148.54 41.22L148.82 41.08V40.8ZM143.64 32.26C141.493 32.26 140.093 32.2133 139.44 32.12H138.88C138.413 32.12 138.087 32.4 137.9 32.96V33.24C137.9 33.7067 138.133 34.1267 138.6 34.5C138.693 34.8733 139.3 35.06 140.42 35.06C142.287 35.62 143.967 35.9 145.46 35.9C147.14 35.9 148.82 35.6667 150.5 35.2C152.273 34.7333 154.653 33.94 157.64 32.82C158.76 32.1667 159.507 31.14 159.88 29.74L160.02 29.18C160.02 28.8067 159.88 28.4333 159.6 28.06C158.853 27.4067 158.293 27.3133 157.92 27.78C156.613 28.9933 154.467 29.9733 151.48 30.72L147.7 32.26H143.64ZM150.08 38.98C149.987 38.7933 149.893 38.56 149.8 38.28C149.707 38 149.613 37.8133 149.52 37.72C149.053 37.2533 148.82 37.44 148.82 38.28C148.82 38.6533 149.007 38.9333 149.38 39.12C149.38 39.12 149.613 39.0733 150.08 38.98ZM153.44 62.78L153.86 63.2C153.86 63.0133 153.953 62.8733 154.14 62.78L153.86 62.5L153.44 62.78ZM172.2 61.66C171.92 61.38 171.687 61.24 171.5 61.24L170.94 61.38C171.127 61.7533 171.313 61.94 171.5 61.94L172.2 61.66ZM172.34 57.88C172.247 57.88 172.2 57.9267 172.2 58.02C172.107 58.2067 172.06 58.3467 172.06 58.44C172.153 58.5333 172.247 58.5333 172.34 58.44L172.76 58.02L172.34 57.88ZM151.62 22.6C151.62 23.44 152.18 24.3733 153.3 25.4C154.14 25.4 154.607 25.0733 154.7 24.42C154.98 24.3267 155.12 24 155.12 23.44C155.12 22.2267 154.513 21.5267 153.3 21.34C153.113 21.1533 152.927 21.06 152.74 21.06C151.993 21.06 151.62 21.4333 151.62 22.18V22.6ZM19.46 24.98H18.9C18.7133 25.1667 18.8533 25.26 19.32 25.26L19.74 25.12L19.46 24.98ZM130.34 57.04V57.46C130.34 57.6467 130.433 57.6467 130.62 57.46V57.04H130.34ZM53.06 98.06V98.34C53.06 98.5267 53.1533 98.5267 53.34 98.34V98.06H53.06ZM131.46 80.98V80.84L131.18 80.98H131.46Z" fill="#9AD076"/>
</g>
<defs>
<filter id="filter0_i_265_107" x="189" y="8" width="196.197" height="105.2" filterUnits="userSpaceOnUse" color-interpolation-filters="sRGB">
<feFlood flood-opacity="0" result="BackgroundImageFix"/>
<feBlend mode="normal" in="SourceGraphic" in2="BackgroundImageFix" result="shape"/>
<feColorMatrix in="SourceAlpha" type="matrix" values="0 0 0 0 0 0 0 0 0 0 0 0 0 0 0 0 0 0 127 0" result="hardAlpha"/>
<feOffset dy="4"/>
<feGaussianBlur stdDeviation="2"/>
<feComposite in2="hardAlpha" operator="arithmetic" k2="-1" k3="1"/>
<feColorMatrix type="matrix" values="0 0 0 0 0 0 0 0 0 0 0 0 0 0 0 0 0 0 0.25 0"/>
<feBlend mode="normal" in2="shape" result="effect1_innerShadow_265_107"/>
</filter>
<filter id="filter1_i_265_107" x="1.26001" y="6.92004" width="186.48" height="109.42" filterUnits="userSpaceOnUse" color-interpolation-filters="sRGB">
<feFlood flood-opacity="0" result="BackgroundImageFix"/>
<feBlend mode="normal" in="SourceGraphic" in2="BackgroundImageFix" result="shape"/>
<feColorMatrix in="SourceAlpha" type="matrix" values="0 0 0 0 0 0 0 0 0 0 0 0 0 0 0 0 0 0 127 0" result="hardAlpha"/>
<feOffset dy="4"/>
<feGaussianBlur stdDeviation="2"/>
<feComposite in2="hardAlpha" operator="arithmetic" k2="-1" k3="1"/>
<feColorMatrix type="matrix" values="0 0 0 0 0 0 0 0 0 0 0 0 0 0 0 0 0 0 0.25 0"/>
<feBlend mode="normal" in2="shape" result="effect1_innerShadow_265_107"/>
</filter>
</defs>
</svg>
